<!-- <svg xmlns="http://www.w3.org/2000/svg" width="2048" height="512" id="person-default" data-supported-dps="2048x512">
  <path fill="none" d="M0 0h2048v512H0z"/>
  <path fill="#dbe7e9" d="M0 0h2048v512H0z"/>
  <path fill="#bfd3d6" d="M1408 0h640v512h-640z"/>
  <path d="M1236.29 0H0v512h1236.29a771.52 771.52 0 000-512z" fill="#a0b4b7"/>
</svg> -->
<svg xmlns="http://www.w3.org/2000/svg" version="1.1" xmlns:xlink="http://www.w3.org/1999/xlink" xmlns:svgjs="http://svgjs.dev/svgjs" width="2048" height="512" preserveAspectRatio="none" viewBox="0 0 2048 512">
    <g mask="url(&quot;#SvgjsMask1042&quot;)" fill="none">
        <rect width="2048" height="512" x="0" y="0" fill="rgba(28, 39, 76, 1)"></rect>
        <path d="M1726.6335017605309 472.86459087989823L1810.2930930241694 487.61603401471984 1790.5904620945826 354.7509255518512z" fill="rgba(176, 194, 213, 0.4)" class="triangle-float2"></path>
        <path d="M1616.423,363.806C1642.547,363.042,1660.733,341.205,1674.008,318.693C1687.572,295.691,1699.224,268.465,1686.482,244.998C1673.326,220.768,1643.951,211.1,1616.423,212.637C1591.481,214.03,1571.28,230.538,1558.723,252.133C1546.086,273.866,1541.15,299.907,1552.69,322.242C1565.168,346.393,1589.251,364.601,1616.423,363.806" fill="rgba(176, 194, 213, 0.4)" class="triangle-float2"></path>
        <path d="M511.715,499.978C553.879,496.393,588.915,471.252,610.748,435.004C633.435,397.338,643.343,352.438,624.517,312.701C602.752,266.762,562.545,225.354,511.715,225.977C461.592,226.591,428.83,272.093,403.603,315.409C378.145,359.121,352.912,411.104,378.479,454.752C403.886,498.127,461.628,504.236,511.715,499.978" fill="rgba(176, 194, 213, 0.4)" class="triangle-float1"></path>
        <path d="M1708.3291735953237 411.044724319096L1831.2441563739092 446.4168354029733 1806.0928995131328 337.4747731025968z" fill="rgba(176, 194, 213, 0.4)" class="triangle-float1"></path>
        <path d="M164.07729245330304 292.26019002805515L150.588621580787 215.7621361379479 87.57923856319577 305.74886090057123z" fill="rgba(176, 194, 213, 0.4)" class="triangle-float1"></path>
        <path d="M372.949,281.785C388.386,281.894,401.912,272.353,409.661,259.002C417.443,245.594,418.679,229.297,411.341,215.641C403.597,201.229,389.305,190.255,372.949,190.676C357.16,191.082,345.21,203.567,337.833,217.532C330.997,230.472,330.106,245.647,337.125,258.489C344.447,271.886,357.682,281.677,372.949,281.785" fill="rgba(176, 194, 213, 0.4)" class="triangle-float1"></path>
        <path d="M1080.136,454.004C1104.954,454.621,1130.019,446.363,1143.523,425.531C1158.218,402.861,1160.313,373.825,1147.542,350.018C1134.071,324.907,1108.624,306.685,1080.136,307.374C1052.614,308.039,1030.559,328.572,1018.147,353.145C1006.958,375.299,1008.987,401.365,1021.983,422.51C1034.355,442.639,1056.516,453.417,1080.136,454.004" fill="rgba(176, 194, 213, 0.4)" class="triangle-float2"></path>
        <path d="M2096.653,459.691C2150.201,463.598,2202.836,432.92,2227.063,385.007C2249.487,340.66,2228.648,290.889,2203.757,247.878C2178.927,204.973,2146.219,158.9,2096.653,159.666C2047.847,160.42,2016.443,207.188,1995.134,251.103C1976.884,288.712,1977.212,330.524,1995.506,368.112C2016.839,411.943,2048.035,456.144,2096.653,459.691" fill="rgba(176, 194, 213, 0.4)" class="triangle-float2"></path>
        <path d="M1397.806225341866 198.16031535380606L1313.9292880122982 291.31509165756785 1490.9610016456277 282.03725268337377z" fill="rgba(176, 194, 213, 0.4)" class="triangle-float3"></path>
    </g>
    <defs>
        <mask id="SvgjsMask1042">
            <rect width="2048" height="512" fill="#ffffff"></rect>
        </mask>
        <style>
            @keyframes float1 {
                    0%{transform: translate(0, 0)}
                    50%{transform: translate(-10px, 0)}
                    100%{transform: translate(0, 0)}
                }

                .triangle-float1 {
                    animation: float1 5s infinite;
                }

                @keyframes float2 {
                    0%{transform: translate(0, 0)}
                    50%{transform: translate(-5px, -5px)}
                    100%{transform: translate(0, 0)}
                }

                .triangle-float2 {
                    animation: float2 4s infinite;
                }

                @keyframes float3 {
                    0%{transform: translate(0, 0)}
                    50%{transform: translate(0, -10px)}
                    100%{transform: translate(0, 0)}
                }

                .triangle-float3 {
                    animation: float3 6s infinite;
                }
        </style>
    </defs>
</svg>