<svg fill="#1C274C" xmlns="http://www.w3.org/2000/svg" width="30px" height="30px" viewBox="0 0 100 100" xml:space="preserve" stroke="#1C274C" stroke-width="0.001"><g id="SVGRepo_bgCarrier" stroke-width="0"></g><g id="SVGRepo_tracerCarrier" stroke-linecap="round" stroke-linejoin="round"></g><g id="SVGRepo_iconCarrier"> <g> <g> <path d="M76,42H24c-1.1,0-2,0.9-2,2v30c0,3.3,2.7,6,6,6h44c3.3,0,6-2.7,6-6V44C78,42.9,77.1,42,76,42z M40,70 c0,1.1-0.9,2-2,2h-4c-1.1,0-2-0.9-2-2v-4c0-1.1,0.9-2,2-2h4c1.1,0,2,0.9,2,2V70z M40,56c0,1.1-0.9,2-2,2h-4c-1.1,0-2-0.9-2-2v-4 c0-1.1,0.9-2,2-2h4c1.1,0,2,0.9,2,2V56z M54,70c0,1.1-0.9,2-2,2h-4c-1.1,0-2-0.9-2-2v-4c0-1.1,0.9-2,2-2h4c1.1,0,2,0.9,2,2V70z M54,56c0,1.1-0.9,2-2,2h-4c-1.1,0-2-0.9-2-2v-4c0-1.1,0.9-2,2-2h4c1.1,0,2,0.9,2,2V56z M68,70c0,1.1-0.9,2-2,2h-4 c-1.1,0-2-0.9-2-2v-4c0-1.1,0.9-2,2-2h4c1.1,0,2,0.9,2,2V70z M68,56c0,1.1-0.9,2-2,2h-4c-1.1,0-2-0.9-2-2v-4c0-1.1,0.9-2,2-2h4 c1.1,0,2,0.9,2,2V56z"></path> </g> <g> <path d="M72,26h-5v-2c0-2.2-1.8-4-4-4s-4,1.8-4,4v2H41v-2c0-2.2-1.8-4-4-4s-4,1.8-4,4v2h-5c-3.3,0-6,2.7-6,6v2 c0,1.1,0.9,2,2,2h52c1.1,0,2-0.9,2-2v-2C78,28.7,75.3,26,72,26z"></path> </g> </g> </g></svg>