<svg  xmlns="http://www.w3.org/2000/svg" xmlns:xlink="http://www.w3.org/1999/xlink" viewBox="60 10 640 600"><defs><style>.a,.aa,.ab,.ac,.l,.n,.o,.x,.z{fill:none;}.b{isolation:isolate;}.c{fill:#667395;}.d,.k{fill:#fff;}.e{fill:#f0c9cf;}.f{fill:#1f2251;}.g{fill:#d683a7;}.h{fill:#99a3ca;}.i{fill:#7988b8;}.j{fill:#647bf4;}.ab,.k{opacity:0.25;}.k{mix-blend-mode:overlay;}.l,.o{stroke:#1f2251;}.aa,.ab,.ac,.l,.n,.o,.z{stroke-linecap:round;}.aa,.ab,.ac,.l,.o,.z{stroke-linejoin:round;}.l,.n{stroke-width:0.53px;}.m{fill:#161937;}.n{stroke:#c85e8b;stroke-miterlimit:9;}.o,.x{stroke-width:0.79px;}.p{fill:#eab7c0;}.q{fill:#2a3551;}.r{fill:#364380;}.s{fill:#445ec7;}.t{fill:#4257b2;}.u{fill:#ebaf65;}.v{clip-path:url(#a);}.w{fill:#292f69;}.aa,.ab,.x{stroke:#647bf4;}.x{stroke-miterlimit:10;}.y{fill:#e6e9fc;}.z{stroke:#97a2d4;stroke-width:2.1px;}.ac{stroke:#ebaf65;}</style><clipPath id="a"><path class="a" d="M387.6,198.1l11.8-12L387,161.2a28.1,28.1,0,0,0-20.1-15.3l-1.6-.3-2.2-.3H345.5l-2.5-.6-3.5,1.5-7.1,3.3a29.6,29.6,0,0,0-17,30.2l3.4,28.8,12.4-7.3-1.7,45.1a3.2,3.2,0,0,0,3.6,3.2l57.5-8.4a3,3,0,0,0,2.4-3.2Z"/></clipPath></defs><g class="b"><polyline class="c" points="750 0 0 0 0 500 750 500 750 0"/><path class="d" d="M141.1,429s0-14.8-7-36.1S91.2,367.3,95,336.7c20.1,7.2,35.9,37.1,39.4,46.2-11.8-45.9-3.5-78.4-3.5-78.4s16.1,34.3,10.2,78.6C162.3,330,179,322.7,179,322.7s-4.4,32.2-15.9,49.1-20.4,16.6-20.4,16.6.3,27.8,5.4,40.6Z"/><path class="d" d="M603.8,429s0-14.8-7-36.1-42.9-25.6-39.2-56.2c20.2,7.2,36,37.1,39.5,46.2-11.8-45.9-3.5-78.4-3.5-78.4s16.1,34.3,10.2,78.6c21.2-53.1,37.9-60.4,37.9-60.4s-4.4,32.2-15.9,49.1-20.4,16.6-20.4,16.6.3,27.8,5.3,40.6Z"/><polyline class="e" points="248.9 397.8 251 414.5 246.2 422.8 234.5 418.2 230.9 402"/><path class="f" d="M275.9,426.1l-25.4-14.7-4.8,6.8H234.5l-1.2,10.4h42A1.3,1.3,0,0,0,275.9,426.1Z"/><polyline class="e" points="158.3 397.8 155.1 414.5 159.9 422.8 171.6 418.2 176.3 402"/><path class="e" d="M261.6,235.7l-19.1,25.1a4.8,4.8,0,0,0-1.1,3l-1.7,22.3-6.8-46.9,9.6-16.2-.9-3.2-3.7-12.1,18.8-7.1,1.2,3.4,5.9,17.7A15.2,15.2,0,0,1,261.6,235.7Z"/><polygon class="g" points="257.9 204 241.6 219.8 237.9 207.7 256.7 200.6 257.9 204"/><polygon class="h" points="252.3 402.1 229.3 405.9 211.1 328.1 206.7 308.7 206.5 308.3 177.1 407.9 154 401.5 175.5 263.1 177.1 252.7 235.7 251.8 236.3 257.5 252.3 402.1"/><polygon class="i" points="236.3 257.5 175.5 263.1 176.4 257.5 177.1 252.7 235.7 251.8 236.2 256.5 236.3 257.5"/><path class="f" d="M236.2,256.5c-12.7,1.9-50.8,1.2-59.8,1l.7-4.8,58.6-.9Z"/><path class="j" d="M259.7,199.5l-13.5,8.1-1.8,1-4.1,2.4h0v1.8l-.6,14.2v1.7l-.6,14.2v1.8l-.2,4.5s2.4,2.6,1.7,4.9c-.2.6-4.2,1-10.2,1.3h-1.7c-4.2.1-9.1.3-14.3.3h-1.7c-4.7.1-9.6,0-14.2-.1h-1.8c-5.4-.1-10.3-.3-14.2-.6l-1.7-.2c-3.9-.4-6.2-.8-6.2-1.5a9.6,9.6,0,0,1,2.3-5.3V212l-1.4-.9-9-5.2-1.8-1-11.2-6.6.6-1.4.8-1.7,6.4-14.2.7-1.8,2.7-5.9.6-1.3a13.4,13.4,0,0,1,1.2-2.4,28.5,28.5,0,0,1,3.1-4.6,11.5,11.5,0,0,1,1.4-1.7,32.6,32.6,0,0,1,9.7-7.3l1.7-.8a30.7,30.7,0,0,1,8-2.3l4.1-.7,2.1-.3,1.8-.3h.1l14.1,1.2h1.7l4.3.4,3.6.5h.7a36.5,36.5,0,0,1,5.7,1.4l1.7.7a32.2,32.2,0,0,1,10.9,7.3l1.6,1.7a18.4,18.4,0,0,1,1.7,2.2l1.8,2.7a30.1,30.1,0,0,1,1.6,3.1l2.8,6.2.8,1.8,6.4,14.2.8,1.7Z"/><path class="k" d="M257.8,195.2H246.2V181h5.2l-.8-1.8h-4.4v-9.3l-1.8-2.7v12H230.2V165h12.5l-1.6-1.7H230.2V156l-1.7-.7v8H214.2V152.9h-1.7v10.5H198.3V151.6l-1.8.3v11.4H182.3v-8.1l-1.7.8v7.3h-9.7a11.5,11.5,0,0,0-1.4,1.7h11.1v14.2H166.4v-9.6a13.4,13.4,0,0,0-1.2,2.4l-.6,1.3v5.9h-2.7l-.7,1.8h3.4v14.2h-9.8l-.8,1.7h10.6v8l1.8,1v-9h14.2v14.2h-5.2l1.4.9v.9h3.8v14.2h-3.8v1.7h3.8V243h-3.9v1.8h3.9V255l1.7.2V244.8h14.2v11h1.8v-11h14.2v11.1h1.7V244.8h14.3v10.8h1.7V244.8h8.7V243h-8.7V228.8h9.3v-1.7h-9.4V212.9h10v-1.8H230.2V196.9h14.2v11.7l1.8-1V196.9h12.4Zm-77.2,0H166.4V181h14.2ZM196.5,243H182.3V228.8h14.2Zm0-15.9H182.3V212.9h14.2Zm0-16H182.3V196.9h14.2Zm0-15.9H182.3V181h14.2Zm0-16H182.3V165h14.2Zm16,63.8H198.3V228.8h14.2Zm0-15.9H198.3V212.9h14.2Zm0-16H198.3V196.9h14.2Zm0-15.9H198.3V181h14.2Zm0-16H198.3V165h14.2Zm16,63.8H214.2V228.8h14.3Zm0-15.9H214.2V212.9h14.3Zm0-16H214.2V196.9h14.3Zm0-15.9H214.2V181h14.3Zm0-16H214.2V165h14.3Zm15.9,16H230.2V181h14.2Z"/><path class="d" d="M222.8,153.9c-1.3,5.7-4.5,11.3-11.9,11.3-12-.1-15.5-9.3-16.5-13l4-.6,20.1,1.7,3.6.5Z"/><line class="l" x1="237.9" y1="207.7" x2="236.4" y2="184.5"/><path class="f" d="M227.9,114.9s2.5,2.8.6,7.5a36.9,36.9,0,0,0-3.2,13.2c-.1,3.7-16.2,5.9-21.7,6.5l-1.9.2-4.4-8.6c-.5-1.5-1.9-4.4-3.1-7.7-2-5.4-3.6-12-.4-15.9,5.1-6.2,10.7-3.4,19.4-7.7s13.1-8.3,18.1-2.4S227.9,114.9,227.9,114.9Z"/><path class="m" d="M205,140.3l-1.4,1.8-1.9.2-4.4-8.6c-.5-1.5-1.9-4.4-3.1-7.7,4.3-1.8,7.3-6.3,7.3-6.3Z"/><path class="e" d="M218.5,153.3s.4,8.5-8.8,8.2-11.3-9.9-11.3-9.9l2.5-.5s.9-10.1,0-17.4l17.6,9-.4.6c-2.1,2.8-1.8,9.2-1.8,9.2Z"/><path class="g" d="M216.3,152.5c-11.4.3-14.6-12.9-14.6-12.9l16.4,3.7C216,146.1,216.3,152.5,216.3,152.5Z"/><path class="e" d="M226.5,134.5a24.2,24.2,0,0,1-.3,4.7c-.9,6.1-4.1,10.4-12,9.8-11.7-.9-13.8-12.4-13.8-12.4a4.4,4.4,0,0,1-5.9-.3c-2.9-2.9-1.4-7.2,1.4-7.7s3,1.3,4.1,2.8a.8.8,0,0,0,1.5-.5V119.7s14.1.6,22.5-2.5h.2a7,7,0,0,1,2,4.7c.2,2.5-.3,5.3,0,7.7A40.3,40.3,0,0,1,226.5,134.5Z"/><path class="n" d="M218.1,136.7l1.1-.6a1.9,1.9,0,0,0,.7-2.2l-1.8-4.2"/><path d="M214,132.7a.9.9,0,0,1-.8,1,1,1,0,0,1-.8-1,.9.9,0,0,1,.8-1C213.7,131.7,214,132.1,214,132.7Z"/><ellipse cx="222.8" cy="132.2" rx="0.8" ry="1"/><path class="n" d="M195,131.7c1.7-1,3.8.6,3.4,3.1"/><path class="n" d="M214.2,141.3a4.4,4.4,0,0,0,5.3.5"/><path class="o" d="M209.3,128.3a4.3,4.3,0,0,1,5-1.4"/><path class="o" d="M225.3,127s-2-2.1-5.1-.1"/><circle class="p" cx="209.7" cy="136.7" r="2.8"/><path class="p" d="M226.5,134.5a24.2,24.2,0,0,1-.3,4.7,2.8,2.8,0,0,1-4.2-2.5,2.9,2.9,0,0,1,2.8-2.8A2.5,2.5,0,0,1,226.5,134.5Z"/><path class="q" d="M232.5,229.3H218a2.5,2.5,0,0,1-2.5-3.1l6.2-30.3a3.9,3.9,0,0,1,3.7-3.1H242a2.4,2.4,0,0,1,2.5,3.1l-8.2,30.3A4.1,4.1,0,0,1,232.5,229.3Z"/><path class="r" d="M234.6,230.6H220.1a2.5,2.5,0,0,1-2.5-3.1l6.1-30.3a4.2,4.2,0,0,1,3.8-3.2H242a2.5,2.5,0,0,1,2.5,3.2l-6.1,30.3A4.1,4.1,0,0,1,234.6,230.6Z"/><path class="e" d="M231.1,224.5c0,3-3.6,5.6-3.6,5.6s.8,4.1-5.9,5.5-13.6-4.5-13.6-4.5l-43.6,9.2a18.6,18.6,0,0,1-3.4.4,16.2,16.2,0,0,1-12.7-6.1,16.5,16.5,0,0,1-2.2-17.3l6.3-13.5,2.2-4.8,22.2,13-1.6,2.7-2.3,4,35.3-1.3a31.4,31.4,0,0,0,6-5.6c2.3-3,3.1-3.8,5-2.6s-.2,6.4-1.8,8.4c5.7,3.2,12.4.8,15.1,1.2S235.3,222.4,231.1,224.5Z"/><path class="n" d="M231.1,224.5c-3.5,1.5-12,.1-14.4-1.5"/><path class="n" d="M227.5,230.1c-4.8,1-10.2.6-12.9-2.1"/><path class="s" d="M225.9,207.2h0a1.3,1.3,0,0,1-1.3-1.6l1.2-5.9a2,2,0,0,1,1.9-1.6h0a1.3,1.3,0,0,1,1.3,1.6l-1.1,5.9A2.1,2.1,0,0,1,225.9,207.2Z"/><line class="n" x1="172.9" y1="218.7" x2="161.2" y2="218.7"/><line class="n" x1="242.5" y1="223" x2="248.8" y2="215.5"/><line class="l" x1="176.8" y1="212" x2="189.5" y2="187.6"/><polygon class="g" points="176.8 212 175.2 214.7 152.4 203.8 154.6 199 176.8 212"/><line class="l" x1="206.5" y1="308.3" x2="214.6" y2="282"/><path class="f" d="M130.2,426.1l25.4-14.7,4.9,6.8h11.1l1.2,10.4h-42A1.3,1.3,0,0,1,130.2,426.1Z"/><rect class="h" x="152.2" y="397.1" width="28.5" height="9.25" rx="2.8" transform="translate(84.4 -25.3) rotate(11.6)"/><line class="l" x1="155.7" y1="394.8" x2="179" y2="399.6"/><rect class="h" x="226.3" y="397.1" width="28.5" height="9.25" rx="2.8" transform="translate(-69.2 50.5) rotate(-10.5)"/><line class="l" x1="228.1" y1="399.4" x2="251.4" y2="395.1"/><line class="l" x1="183.2" y1="246.3" x2="234.2" y2="238.8"/><polygon class="i" points="214 285.2 211.1 328.1 206.7 308.7 206.7 307.8 214 285.2"/><path class="e" d="M411.6,156.9l-11.1,41.9a12.2,12.2,0,0,1-15.3,8.5l-7.5-2.3,22.6-53.2Z"/><path class="g" d="M404.8,145.3c-.9-1.1-7.9,2.7-9.6,3.1s-.2,4.6,2.9,4.2,4.1-3.7,4.1-3.7Z"/><path class="q" d="M399.6,136.3l-.2,27.4,3-.6V136.3a1.4,1.4,0,0,0-1-1.3h0A1.4,1.4,0,0,0,399.6,136.3Z"/><path class="e" d="M403.9,145.8s-9.1,9-7.3,11.7,7.3-2.2,8.4-3.7c-.2,3.1,3.7,5.9,6,5.5s4.9-4.1,3.8-5.7-7.6-5.3-7.6-5.3S405.6,143.4,403.9,145.8Z"/><polyline class="e" points="315.7 397.8 312.5 414.5 317.3 422.8 329 418.2 333.7 402"/><path class="f" d="M287.6,426.1,313,411.4l4.9,6.8H329l1.2,10.4h-42A1.3,1.3,0,0,1,287.6,426.1Z"/><polyline class="e" points="425.2 397.8 428.4 414.5 423.6 422.8 412 418.2 407.3 402"/><path class="f" d="M453.4,426.1l-25.5-14.7-4.8,6.8H412l-1.3,10.4h42A1.4,1.4,0,0,0,453.4,426.1Z"/><polygon class="j" points="427.3 391.9 403.3 397.2 366.6 274.3 337.3 395.1 313.4 391.6 328.7 263.2 331.1 243.4 366.7 240.7 390.7 238.8 391.1 240.7 391.4 241.7 427.3 391.9"/><polygon class="t" points="391.4 241.7 328.7 263.2 331.1 243.4 366.7 240.7 391.1 240.7 391.4 241.7"/><path class="u" d="M393,237.9a3,3,0,0,1-2.4,3.2l-57.5,8.4a3.2,3.2,0,0,1-3.6-3.2l1.7-45.1,1.2-32.8,8.8-19.1,1.8-4h20.1l2.2.3,1.6.3A28.1,28.1,0,0,1,387,161.2l12.4,24.9-11.8,12Z"/><path class="u" d="M339.7,163.4a6.8,6.8,0,0,0-.4,2.8l2.2,29-1.9,1.1-8.4,4.9-10.6,6.2-1.8,1.1-3.4-28.8a29.6,29.6,0,0,1,17-30.2l7.1-3.3,3.5-1.5,2.5.6,1.5.4-2.9,7Z"/><g class="v"><path class="k" d="M320.3,237.2a2.1,2.1,0,1,1-4.1,0,2,2,0,0,1,2-2.1A2.1,2.1,0,0,1,320.3,237.2Z"/><path class="k" d="M332.6,237.2a2.1,2.1,0,1,1-4.1,0,2,2,0,0,1,2-2.1A2.1,2.1,0,0,1,332.6,237.2Z"/><path class="k" d="M344.9,237.2a2.1,2.1,0,1,1-4.1,0,2,2,0,0,1,2-2.1A2.1,2.1,0,0,1,344.9,237.2Z"/><path class="k" d="M357.2,237.2a2.1,2.1,0,1,1-4.1,0,2,2,0,0,1,2-2.1A2.1,2.1,0,0,1,357.2,237.2Z"/><path class="k" d="M369.5,237.2a2.1,2.1,0,1,1-4.1,0,2.1,2.1,0,0,1,2.1-2.1A2,2,0,0,1,369.5,237.2Z"/><path class="k" d="M381.8,237.2a2.1,2.1,0,1,1-4.1,0,2.1,2.1,0,0,1,2.1-2.1A2,2,0,0,1,381.8,237.2Z"/><path class="k" d="M394.1,237.2a2.1,2.1,0,1,1-4.1,0,2.1,2.1,0,0,1,2.1-2.1A2,2,0,0,1,394.1,237.2Z"/><path class="k" d="M406.5,237.2a2.2,2.2,0,0,1-2.1,2.1,2.1,2.1,0,0,1-2.1-2.1,2.1,2.1,0,0,1,2.1-2.1A2.1,2.1,0,0,1,406.5,237.2Z"/><path class="k" d="M320.3,225.7a2.1,2.1,0,1,1-2.1-2.1A2.1,2.1,0,0,1,320.3,225.7Z"/><path class="k" d="M332.6,225.7a2.1,2.1,0,1,1-2.1-2.1A2.1,2.1,0,0,1,332.6,225.7Z"/><path class="k" d="M344.9,225.7a2.1,2.1,0,1,1-2.1-2.1A2.1,2.1,0,0,1,344.9,225.7Z"/><path class="k" d="M357.2,225.7a2.1,2.1,0,1,1-2.1-2.1A2.1,2.1,0,0,1,357.2,225.7Z"/><path class="k" d="M369.5,225.7a2.1,2.1,0,1,1-2-2.1A2.1,2.1,0,0,1,369.5,225.7Z"/><path class="k" d="M381.8,225.7a2.1,2.1,0,1,1-2-2.1A2.1,2.1,0,0,1,381.8,225.7Z"/><path class="k" d="M394.1,225.7a2.1,2.1,0,1,1-2-2.1A2.1,2.1,0,0,1,394.1,225.7Z"/><path class="k" d="M406.5,225.7a2.2,2.2,0,0,1-2.1,2.1,2.1,2.1,0,1,1,0-4.2A2.2,2.2,0,0,1,406.5,225.7Z"/><circle class="k" cx="318.2" cy="214.2" r="2.1"/><path class="k" d="M332.6,214.2a2.1,2.1,0,0,1-2.1,2.1,2,2,0,0,1-2-2.1,2.1,2.1,0,1,1,4.1,0Z"/><path class="k" d="M344.9,214.2a2.1,2.1,0,0,1-2.1,2.1,2,2,0,0,1-2-2.1,2.1,2.1,0,1,1,4.1,0Z"/><path class="k" d="M357.2,214.2a2.1,2.1,0,0,1-2.1,2.1,2,2,0,0,1-2-2.1,2.1,2.1,0,1,1,4.1,0Z"/><path class="k" d="M369.5,214.2a2,2,0,0,1-2,2.1,2.1,2.1,0,0,1-2.1-2.1,2.1,2.1,0,1,1,4.1,0Z"/><circle class="k" cx="379.8" cy="214.2" r="2.1"/><circle class="k" cx="392.1" cy="214.2" r="2.1"/><circle class="k" cx="404.4" cy="214.2" r="2.1"/><circle class="k" cx="318.2" cy="202.7" r="2.1"/><path class="k" d="M332.6,202.7a2.1,2.1,0,0,1-2.1,2.1,2,2,0,0,1-2-2.1,2,2,0,0,1,2-2A2,2,0,0,1,332.6,202.7Z"/><path class="k" d="M344.9,202.7a2.1,2.1,0,0,1-2.1,2.1,2,2,0,0,1-2-2.1,2,2,0,0,1,2-2A2,2,0,0,1,344.9,202.7Z"/><path class="k" d="M357.2,202.7a2.1,2.1,0,0,1-2.1,2.1,2,2,0,0,1-2-2.1,2,2,0,0,1,2-2A2,2,0,0,1,357.2,202.7Z"/><path class="k" d="M369.5,202.7a2,2,0,0,1-2,2.1,2.1,2.1,0,0,1-2.1-2.1,2,2,0,0,1,2.1-2A2,2,0,0,1,369.5,202.7Z"/><circle class="k" cx="379.8" cy="202.7" r="2.1"/><circle class="k" cx="392.1" cy="202.7" r="2.1"/><circle class="k" cx="404.4" cy="202.7" r="2.1"/><path class="k" d="M320.3,191.3a2,2,0,0,1-2.1,2,2,2,0,0,1-2-2,2,2,0,0,1,2-2.1A2.1,2.1,0,0,1,320.3,191.3Z"/><path class="k" d="M332.6,191.3a2,2,0,0,1-2.1,2,2,2,0,0,1-2-2,2,2,0,0,1,2-2.1A2.1,2.1,0,0,1,332.6,191.3Z"/><path class="k" d="M344.9,191.3a2,2,0,0,1-2.1,2,2,2,0,0,1-2-2,2,2,0,0,1,2-2.1A2.1,2.1,0,0,1,344.9,191.3Z"/><path class="k" d="M357.2,191.3a2,2,0,0,1-2.1,2,2,2,0,0,1-2-2,2,2,0,0,1,2-2.1A2.1,2.1,0,0,1,357.2,191.3Z"/><path class="k" d="M369.5,191.3a2,2,0,0,1-2,2,2,2,0,0,1-2.1-2,2.1,2.1,0,0,1,2.1-2.1A2,2,0,0,1,369.5,191.3Z"/><path class="k" d="M381.8,191.3a2,2,0,0,1-2,2,2,2,0,0,1-2.1-2,2.1,2.1,0,0,1,2.1-2.1A2,2,0,0,1,381.8,191.3Z"/><path class="k" d="M394.1,191.3a2,2,0,0,1-2,2,2,2,0,0,1-2.1-2,2.1,2.1,0,0,1,2.1-2.1A2,2,0,0,1,394.1,191.3Z"/><path class="k" d="M406.5,191.3a2.1,2.1,0,0,1-2.1,2,2,2,0,0,1-2.1-2,2.1,2.1,0,0,1,2.1-2.1A2.1,2.1,0,0,1,406.5,191.3Z"/><path class="k" d="M320.3,179.8a2,2,0,0,1-2.1,2,2,2,0,0,1-2-2,2,2,0,0,1,2-2.1A2.1,2.1,0,0,1,320.3,179.8Z"/><path class="k" d="M332.6,179.8a2,2,0,0,1-2.1,2,2,2,0,0,1-2-2,2,2,0,0,1,2-2.1A2.1,2.1,0,0,1,332.6,179.8Z"/><path class="k" d="M344.9,179.8a2,2,0,0,1-2.1,2,2,2,0,0,1-2-2,2,2,0,0,1,2-2.1A2.1,2.1,0,0,1,344.9,179.8Z"/><path class="k" d="M357.2,179.8a2,2,0,0,1-2.1,2,2,2,0,0,1-2-2,2,2,0,0,1,2-2.1A2.1,2.1,0,0,1,357.2,179.8Z"/><path class="k" d="M369.5,179.8a2,2,0,0,1-2,2,2,2,0,0,1-2.1-2,2.1,2.1,0,0,1,2.1-2.1A2,2,0,0,1,369.5,179.8Z"/><path class="k" d="M381.8,179.8a2,2,0,0,1-2,2,2,2,0,0,1-2.1-2,2.1,2.1,0,0,1,2.1-2.1A2,2,0,0,1,381.8,179.8Z"/><path class="k" d="M394.1,179.8a2,2,0,0,1-2,2,2,2,0,0,1-2.1-2,2.1,2.1,0,0,1,2.1-2.1A2,2,0,0,1,394.1,179.8Z"/><path class="k" d="M406.5,179.8a2.1,2.1,0,0,1-2.1,2,2,2,0,0,1-2.1-2,2.1,2.1,0,0,1,2.1-2.1A2.1,2.1,0,0,1,406.5,179.8Z"/><circle class="k" cx="318.2" cy="168.3" r="2.1"/><path class="k" d="M332.6,168.3a2.1,2.1,0,1,1-4.1,0,2,2,0,0,1,2-2.1A2.1,2.1,0,0,1,332.6,168.3Z"/><path class="k" d="M344.9,168.3a2.1,2.1,0,1,1-4.1,0,2,2,0,0,1,2-2.1A2.1,2.1,0,0,1,344.9,168.3Z"/><path class="k" d="M357.2,168.3a2.1,2.1,0,1,1-4.1,0,2,2,0,0,1,2-2.1A2.1,2.1,0,0,1,357.2,168.3Z"/><path class="k" d="M369.5,168.3a2.1,2.1,0,1,1-4.1,0,2.1,2.1,0,0,1,2.1-2.1A2,2,0,0,1,369.5,168.3Z"/><circle class="k" cx="379.8" cy="168.3" r="2.1"/><circle class="k" cx="392.1" cy="168.3" r="2.1"/><circle class="k" cx="404.4" cy="168.3" r="2.1"/><circle class="k" cx="318.2" cy="156.8" r="2.1"/><path class="k" d="M332.6,156.8a2.1,2.1,0,0,1-2.1,2.1,2,2,0,0,1-2-2.1,2.1,2.1,0,1,1,4.1,0Z"/><path class="k" d="M344.9,156.8a2.1,2.1,0,0,1-2.1,2.1,2,2,0,0,1-2-2.1,2.1,2.1,0,1,1,4.1,0Z"/><path class="k" d="M357.2,156.8a2.1,2.1,0,0,1-2.1,2.1,2,2,0,0,1-2-2.1,2.1,2.1,0,1,1,4.1,0Z"/><path class="k" d="M369.5,156.8a2,2,0,0,1-2,2.1,2.1,2.1,0,0,1-2.1-2.1,2.1,2.1,0,1,1,4.1,0Z"/><circle class="k" cx="379.8" cy="156.8" r="2.1"/><circle class="k" cx="392.1" cy="156.8" r="2.1"/><circle class="k" cx="404.4" cy="156.8" r="2.1"/><path class="k" d="M320.3,145.3a2.1,2.1,0,0,1-2.1,2.1,2,2,0,0,1-2-2.1,2.1,2.1,0,1,1,4.1,0Z"/><path class="k" d="M332.6,145.3a2.1,2.1,0,0,1-2.1,2.1,2,2,0,0,1-2-2.1,2.1,2.1,0,1,1,4.1,0Z"/><path class="k" d="M344.9,145.3a2.1,2.1,0,0,1-2.1,2.1,2,2,0,0,1-2-2.1,2.1,2.1,0,1,1,4.1,0Z"/><path class="k" d="M357.2,145.3a2.1,2.1,0,0,1-2.1,2.1,2,2,0,0,1-2-2.1,2.1,2.1,0,1,1,4.1,0Z"/><path class="k" d="M369.5,145.3a2,2,0,0,1-2,2.1,2.1,2.1,0,0,1-2.1-2.1,2.1,2.1,0,1,1,4.1,0Z"/><path class="k" d="M381.8,145.3a2,2,0,0,1-2,2.1,2.1,2.1,0,0,1-2.1-2.1,2.1,2.1,0,1,1,4.1,0Z"/><path class="k" d="M394.1,145.3a2,2,0,0,1-2,2.1,2.1,2.1,0,0,1-2.1-2.1,2.1,2.1,0,1,1,4.1,0Z"/><path class="k" d="M406.5,145.3a2.1,2.1,0,0,1-2.1,2.1,2.1,2.1,0,0,1-2.1-2.1,2.1,2.1,0,0,1,2.1-2.1A2.2,2.2,0,0,1,406.5,145.3Z"/></g><path class="q" d="M370.6,192l12.2-27.1a4,4,0,0,1,2.5-2.1l49.9-13.7c.8-.2,2.5,1.9,2.1,2.7l-18.1,33.7a5.3,5.3,0,0,1-2.8,2.5l-46.9,17.8Z"/><path class="r" d="M371.5,194l12.2-27.1a4,4,0,0,1,2.5-2.1l49.9-13.7a1,1,0,0,1,1.1,1.5l-17.1,34.9a5.3,5.3,0,0,1-2.8,2.5l-46.9,17.8Z"/><path class="e" d="M383.6,200.4s1,2.3-4,6.9-12.5,1.6-12.5,1.6L347.2,224a16.1,16.1,0,0,1-9.6,3.2A16,16,0,0,1,322,214.5v-.7l-1.3-6.4,10.6-6.2,8.4-4.9.3,1.5,1.3,7.3,21.7-10.6s4.4-6.9,6.4-9.4,4.5-2.9,5.2-1.3-3.9,8.2-3.9,8.2,1.7-.1,6.9-2,8.7-5.5,10.1-4.4.6,4.4-1.3,7A10.5,10.5,0,0,1,383.6,200.4Z"/><polygon class="g" points="339.9 197.8 321.9 213.8 320.6 207.4 331.2 201.2 339.6 196.3 339.9 197.8"/><path class="d" d="M366.9,145.9c-.8,4.7-3.4,9.4-10.6,10.2-5.6.6-9.5-1.1-12.2-3.4a17.5,17.5,0,0,1-2.9-3.4,13.8,13.8,0,0,1-1.7-3.1l3.5-1.5,2.5.6h17.6l2.2.3Z"/><path class="e" d="M356.9,152.9c-9.9,1.1-13.9-8.2-13.9-8.2l2-.9a85.7,85.7,0,0,0-.4-12.4l2.8.7,13.9,3.6c-1.3,3-.9,7.2-.8,8.5a1.2,1.2,0,0,0,.1.5l2.5.6S363.5,152.2,356.9,152.9Z"/><path class="g" d="M360.5,144.2c-5.5.1-12.6-1.8-14.8-9-.5-1.7.3-2.6,1.7-3.1l13.9,3.6C360,138.7,360.4,142.9,360.5,144.2Z"/><path class="f" d="M342.3,126.4l-5.1-6.2a8.1,8.1,0,0,1,.6-10.8h0A11.4,11.4,0,0,1,345.9,94l5.1-1.1a6.8,6.8,0,0,0,2.6-1.2l4.9-3.6a3.8,3.8,0,0,1,4.1-.2h0a3.7,3.7,0,0,1,1.3,4.8l-1.5,2.9a.4.4,0,0,0,.5.5l8.9-5.6a2.9,2.9,0,0,1,3.6.5h0a2.7,2.7,0,0,1,.2,3.5l-6.2,8.7a.4.4,0,0,0,.5.6l1.5-.6a3.5,3.5,0,0,1,4.1,1.5h0a3.5,3.5,0,0,1-.4,4.2c-3,3.1-8.5,9.4-9.2,13S342.3,126.4,342.3,126.4Z"/><path class="e" d="M366.6,116.7a24.1,24.1,0,0,0-.3,4.5c0,1.4.2,3.7.3,6.2a24.1,24.1,0,0,1-.5,5.4c-.9,4.1-3.3,7.6-9.4,7.6-12.6,0-13.8-12.4-13.8-12.4s-.4,2.9-3.2,1.5-2.8-5.8-.4-6.9,2.9.2,3.9,1.1a.6.6,0,0,0,1-.6l-.5-5.8c3.4,1,15.7-2.5,20.5-7.2a7.4,7.4,0,0,0,1.7,3.7A3.9,3.9,0,0,1,366.6,116.7Z"/><path class="n" d="M357.7,130.4l1.1-.7a1.7,1.7,0,0,0,.8-2.1l-1.9-4.3"/><path d="M353.7,125.3a.8.8,0,1,1-1.6,0,.8.8,0,1,1,1.6,0Z"/><path d="M363.3,124.8a1,1,0,0,1-.8,1,.9.9,0,0,1-.8-1c0-.6.3-1.1.8-1.1S363.3,124.2,363.3,124.8Z"/><path class="o" d="M349,122a4.2,4.2,0,0,1,5-1.4"/><path class="o" d="M365,120.7s-2-2.2-5.2-.2"/><path class="d" d="M354,132.8l4.7.2a2.3,2.3,0,0,1-2.5,2.3A2.2,2.2,0,0,1,354,132.8Z"/><path class="n" d="M339,124.9c1.4-.9,2.7.2,2.5,2.4"/><path class="p" d="M353.3,130.1a2.9,2.9,0,0,1-5.7,0,2.9,2.9,0,0,1,5.7,0Z"/><path class="p" d="M366.6,127.4a24.1,24.1,0,0,1-.5,5.4h-.5a2.9,2.9,0,0,1-2.9-2.8,2.8,2.8,0,0,1,2.9-2.8Z"/><line class="n" x1="341.3" y1="205.1" x2="333.3" y2="209.2"/><path class="n" d="M386.3,192.6c-1.7,3.5-11.3,4.8-11.3,4.8"/><path class="n" d="M383.6,200.4c-3.9,4.1-10.4,3.1-10.4,3.1"/><line class="l" x1="339.6" y1="196.3" x2="336.3" y2="172.1"/><line class="l" x1="380.6" y1="215.5" x2="356.3" y2="235.9"/><rect class="j" x="310.4" y="392.6" width="28.5" height="9.25" rx="2.8" transform="translate(53.5 -38.3) rotate(7.4)"/><line class="l" x1="313.5" y1="391.1" x2="337" y2="394.2"/><rect class="j" x="402.3" y="392.7" width="28.5" height="9.25" rx="2.8" transform="translate(-94.6 132.6) rotate(-16.3)"/><line class="l" x1="403.9" y1="396.2" x2="426.7" y2="389.6"/><path class="k" d="M386.5,168.9c1.3-1,3-1,3.8,0s.2,2.6-1.1,3.6-3,1-3.8,0S385.2,169.9,386.5,168.9Z"/><path class="k" d="M387.2,169.8a1.4,1.4,0,0,1,1.9,0c.4.5.1,1.3-.6,1.8a1.4,1.4,0,0,1-1.9,0C386.2,171.1,386.5,170.3,387.2,169.8Z"/><line class="l" x1="368.5" y1="263.1" x2="362.2" y2="292.5"/><path class="r" d="M453.9,182.9h0Z"/><path class="r" d="M453.2,182.9Z"/><polyline class="e" points="503.1 368.9 501.5 414.9 506.3 423.3 518 418.7 521.1 373"/><path class="u" d="M476.6,426.6,502,411.9l4.8,6.8H518l1.2,10.3h-42A1.3,1.3,0,0,1,476.6,426.6Z"/><polyline class="e" points="580.9 368.9 595.6 414.9 590.8 423.3 579.1 418.7 563 373"/><path class="u" d="M620.5,426.6,595,411.9l-4.8,6.8H579.1L577.9,429h41.9A1.3,1.3,0,0,0,620.5,426.6Z"/><path class="w" d="M504.5,217.2l-6,173.9,23.9,1.8,9.1-108.8,35.9,112.1,21.2-6.6s-28.7-118.4-31.9-135.3-1.6-25.7-6.7-37.5Z"/><path class="f" d="M523.6,100.4c-6.9-1.9-12.1,8.2-10.5,20.6s-9.1,24.5-7.9,29.6,25.1,12.2,41,12,21-7.1,18-12-7.6-9.8-7.2-24.8S547,83,523.6,100.4Z"/><path class="e" d="M490.7,171.6l-8.8,19.9-13.7-32.1s-1.8-11-3.2-14.1-.9-7.2-2.8-7.8-2.5,2.8-2.5,5.7a34.9,34.9,0,0,1-.5,5.6s-7.8-6.8-8.3-9-.2-9.4-2-10.4-3.6,1.2-4,7.5S457,161.3,457,161.3l9.2,44.5,25.7,4.7,15.3-25.1Z"/><path class="j" d="M569.6,177.5l-9.5,6.8-.9.7-7.1,5.1-1,28h-5.2l-12.5-.2h-.9l-12.5-.3h-.9l-12.4-.3h-2.2a65.3,65.3,0,0,0-1.4-16.8c-2.1-10,.8-16.9.8-16.9l-13.2-11.9,6.7-10.5a21.4,21.4,0,0,1,8.4-7.4l.9-.4a17.6,17.6,0,0,1,3-1l9.4-2.4.6-.2h.3l3.2-.8h20.3l2.4,1.2.8.5h.1l8.5,4.4a27,27,0,0,1,3.9,2.7l.9.8a21.6,21.6,0,0,1,4.8,7.2Z"/><path class="k" d="M506.7,153.3v63.9h-.9V153.7Z"/><polygon class="k" points="520 149.6 520 217.5 519.1 217.5 519.1 149.9 519.7 149.7 520 149.6"/><polygon class="k" points="533.4 148.8 533.4 217.8 532.5 217.8 532.5 148.8 533.4 148.8"/><polygon class="k" points="546.7 150.6 546.7 218.1 545.9 218 545.9 150.1 546.7 150.6"/><path class="k" d="M560.1,158.5v25.8l-.9.7V157.7Z"/><path class="d" d="M546.8,150.6c-2.8,5.6-10.1,8.9-19.1,8.4-7.5-.5-8.4-5.6-8-9.3l3.5-.9h20.3Z"/><path class="e" d="M543.5,148.9a14.9,14.9,0,0,1-13.2,7.3c-9.4,0-7.1-7.4-7.1-7.4l2.7-.9v-4.6l-.3-6.7,16.1-4.9a8.8,8.8,0,0,0-.7,2.8c-.8,5,0,13.4,0,13.4Z"/><path class="g" d="M541.6,131.7a8.8,8.8,0,0,0-.7,2.8h0c-4.6,9.1-12.2,9.2-15.1,8.8l-.3-6.7Z"/><path class="e" d="M523.9,107.5c1.5,7.9,18.4,13.4,19.6,14.3a3.7,3.7,0,0,1,1,2.8.2.2,0,0,0,.4,0c.4-1.2,1.3-2.8,2.7-3s4.4,2.5,3.2,5.9-6.4,1.6-6.4,1.6-4.2,10.2-13.8,10.5-11.7-7.9-11-12.9a31.1,31.1,0,0,0,.3-10.4C519.5,113.4,523.1,111.3,523.9,107.5Z"/><path class="n" d="M548.4,123.5c-.8.3-1.7,2.5-1.4,3.5"/><path class="n" d="M529.2,129.9l-1.2-.7a1.9,1.9,0,0,1-.7-2.2l1.9-4.2"/><path d="M533.2,124.8a.8.8,0,1,0,.8-1A.9.9,0,0,0,533.2,124.8Z"/><path d="M523.6,124.2a.8.8,0,1,0,1.6,0,.8.8,0,1,0-1.6,0Z"/><path class="o" d="M537.4,119.4a4.3,4.3,0,0,0-5.2-.7"/><path class="o" d="M521.8,119.3s2-2.2,5.2-.2"/><path class="x" d="M527.1,124.5a4.1,4.1,0,0,1-4.1,4.1,4.1,4.1,0,0,1,0-8.2A4.1,4.1,0,0,1,527.1,124.5Z"/><path class="x" d="M538.4,124.5a4.1,4.1,0,0,1-4.1,4.1,4.1,4.1,0,1,1,0-8.2A4.1,4.1,0,0,1,538.4,124.5Z"/><path class="x" d="M527,123.5a2.5,2.5,0,0,1,3.4,0"/><path class="n" d="M530.4,133.5a4.8,4.8,0,0,0,4.7-.7"/><path class="h" d="M501.4,216.8H461.6a1.5,1.5,0,0,1-1.4-1.1l-8.5-30.9a1.5,1.5,0,0,1,1-1.8H493Z"/><path class="y" d="M477.7,201.4a3.1,3.1,0,1,1-3.1-3.1A3.1,3.1,0,0,1,477.7,201.4Z"/><rect class="i" x="499.9" y="213.4" width="34.4" height="3.42" rx="1.4"/><rect class="i" x="480.1" y="197.9" width="34.4" height="3.42" rx="1.4" transform="translate(557.5 -332.9) rotate(74.6)"/><path class="e" d="M583.9,225.7a13.2,13.2,0,0,1-20.6,10.8l-22.1-15.2s-12,2.7-17.4,2.2-11.2-3.4-11.3-4.5,21.8-3.4,20.8-4.3-10.8-1-10.9-3.1,2.3-2.8,6.4-3.1,9.2,1.8,9.2,1.8l22.1,3.1-6.3-18.3-1.7-5,17.5-12.6,1.1,3.6,12.6,40.7A12.7,12.7,0,0,1,583.9,225.7Z"/><polygon class="g" points="569.6 177.5 570.7 181.1 553.8 195.1 552.1 190.1 569.6 177.5"/><line class="n" x1="560.1" y1="213.4" x2="569.6" y2="214.7"/><path class="f" d="M507.7,215.1a.5.5,0,1,1-.5-.5A.5.5,0,0,1,507.7,215.1Z"/><path class="f" d="M509.8,215.1a.5.5,0,1,1-.5-.5A.5.5,0,0,1,509.8,215.1Z"/><rect class="h" x="496.1" y="389.6" width="28.5" height="9.25" rx="2.8" transform="matrix(1, 0.03, -0.03, 1, 13.63, -17.04)"/><rect class="h" x="563.8" y="388.3" width="28.5" height="9.25" rx="2.8" transform="translate(-88.4 182.4) rotate(-16.7)"/><line class="l" x1="524.6" y1="261.4" x2="535.7" y2="297.2"/><path class="l" d="M506.7,199.6c5.9,5.4,16.3,6.2,16.3,6.2"/><line class="l" x1="552.1" y1="190.1" x2="544.6" y2="177.5"/><path class="l" d="M503.9,183.5c3.2-6.4,3.8-14.7,3.8-14.7"/><line class="z" x1="115.9" y1="429" x2="641" y2="429"/><polygon class="d" points="492.4 87.4 492.4 129.6 481.8 119 441.2 119 441.2 87.4 492.4 87.4"/><line class="aa" x1="455" y1="96" x2="478.6" y2="96"/><line class="ab" x1="458.9" y1="100.8" x2="478.6" y2="100.8"/><line class="ab" x1="455" y1="105.7" x2="478.6" y2="105.7"/><line class="ab" x1="462" y1="110.5" x2="478.6" y2="110.5"/><polygon class="d" points="255.3 111.9 255.3 154.1 266 143.5 306.6 143.5 306.6 111.9 255.3 111.9"/><line class="ac" x1="292.8" y1="120.5" x2="269.2" y2="120.5"/><line class="ab" x1="288.9" y1="125.3" x2="269.2" y2="125.3"/><line class="ab" x1="292.8" y1="130.2" x2="269.2" y2="130.2"/><line class="ab" x1="285.7" y1="135" x2="269.2" y2="135"/></g></svg>