<!-- <svg xmlns="http://www.w3.org/2000/svg" height="24" width="24" fill="rgba(0,0,0,0.6)">
                                    <path d="M13.7 19C13.9 19.3 14 19.6 14 20C14 21.1 13.1 22 12 22C10.9 22 10 21.1 10 20C10 19.6 10.1 19.3 10.3 19H2V18C2 17 2.4 16.1 3.2 15.2L4.2 14H19.9L20.9 15.2C21.7 16.2 22.1 17.1 22.1 18V19H13.7ZM18.2 7.4C17.8 4.3 15.1 2 12 2C8.9 2 6.2 4.3 5.8 7.4L5 13H19L18.2 7.4Z"></path>
                                </svg>  -->
<svg width="24px" height="24px" viewBox="0 0 24 24" fill="none" xmlns="http://www.w3.org/2000/svg"><g id="SVGRepo_bgCarrier" stroke-width="0"></g><g id="SVGRepo_tracerCarrier" stroke-linecap="round" stroke-linejoin="round"></g><g id="SVGRepo_iconCarrier"><path d="M10.88 2.603A.75.75 0 0 1 11.614 2h.77a.75.75 0 0 1 .735.603l.143.712a1.5 1.5 0 0 0 .75 1.02l.3.165a5.586 5.586 0 0 1 3.239 4.47l.54 4.864c.101.905.564 1.732 1.283 2.291l.354.275a1.5 1.5 0 0 1 .534 1.548L20.25 18a1.32 1.32 0 0 1-1.281 1H15a3 3 0 1 1-6 0H5.03a1.32 1.32 0 0 1-1.28-1l-.013-.052A1.5 1.5 0 0 1 4.27 16.4l.354-.275a3.375 3.375 0 0 0 1.282-2.291l.54-4.865A5.586 5.586 0 0 1 9.688 4.5l.3-.164a1.5 1.5 0 0 0 .75-1.021l.142-.712z" fill="#1C274C"></path></g></svg>