<!-- <svg xmlns="http://www.w3.org/2000/svg" height="24" width="24" fill="rgba(0,0,0,0.6)"><path d="m17 6v-1c0-1.7-1.3-3-3-3h-4c-1.7 0-3 1.3-3 3v1h-5v4c0 1.7 1.3 3 3 3h14c1.7 0 3-1.3 3-3v-4zm-8-1c0-.6.4-1 1-1h4c.6 0 1 .4 1 1v1h-6zm10 9c1.2 0 2.3-.5 3-1.4v4.4c0 1.7-1.3 3-3 3h-14c-1.7 0-3-1.3-3-3v-4.4c.7.9 1.8 1.4 3 1.4z"></path></svg>   -->
<svg width="24px" height="24px" viewBox="0 0 20 20" xmlns="http://www.w3.org/2000/svg" fill="#000000"><g id="SVGRepo_bgCarrier" stroke-width="0"></g><g id="SVGRepo_tracerCarrier" stroke-linecap="round" stroke-linejoin="round"></g><g id="SVGRepo_iconCarrier"><path fill-rule="evenodd" d="M5.508 2.466L4.356 5H2.5A1.5 1.5 0 001 6.5v1.882l.503.251a19 19 0 0016.994 0L19 8.382V6.5A1.5 1.5 0 0017.5 5h-1.856l-1.152-2.534A2.5 2.5 0 0012.216 1H7.784a2.5 2.5 0 00-2.276 1.466zM7.784 3a.5.5 0 00-.455.293L6.553 5h6.894l-.776-1.707A.5.5 0 0012.216 3H7.784z" fill="#1C274C"></path><path d="M19 10.613a20.986 20.986 0 01-8 2.003V14a1 1 0 01-2 0v-1.384c-2.74-.131-5.46-.798-8-2.003V17.5A1.5 1.5 0 002.5 19h15a1.5 1.5 0 001.5-1.5v-6.887z" fill="#1C274C"></path></g></svg>