<!-- <svg width="16" height="16" xmlns="http://www.w3.org/2000/svg" xmlns:xlink="http://www.w3.org/1999/xlink" id="praise-consumption-small" data-supported-dps="16x16">
  <defs>
    <rect id="reactions-praise-consumption-small-a" x="1" y="1" width="14" height="14" rx="7"/>
  </defs>
  <g fill="none" fill-rule="evenodd">
    <rect width="16" height="16" rx="8"/>
    <mask id="reactions-praise-consumption-small-b" fill="#fff">
      <use xlink:href="#reactions-praise-consumption-small-a"/>
    </mask>
    <use fill="#D8D8D8" fill-rule="nonzero" xlink:href="#reactions-praise-consumption-small-a"/>
    <g mask="url(#reactions-praise-consumption-small-b)">
      <circle fill="#6DAE4F" cx="8" cy="8" r="7"/>
      <path d="M8 1a7 7 0 110 14A7 7 0 018 1zm0-1a8 8 0 100 16A8 8 0 008 0z" fill="#FFF" fill-rule="nonzero"/>
      <path d="M12.133 9.224a9 9 0 00-.36-2.32 4.24 4.24 0 01-1.33-1.86c-.16-.53-.27-.72-.74-.73a.72.72 0 00-.65.8c.006.24.026.481.06.72.137.655.33 1.298.58 1.92l-4.5-3.42a.75.75 0 00-1.11.07.72.72 0 00.27 1l2.25 1.7.59.56-3.57-2.71a.71.71 0 10-.85 1.12l2.25 1.7 1.35 1-2.92-2.19a.75.75 0 00-1.11.07c-.31.4-.06.81.26 1.06l2.25 1.69 1.13.85-2.25-1.7a.74.74 0 00-1.09 0 .75.75 0 00.24 1.09l4.1 3c.594.447 2.07.833 2.72.268" stroke="#165209" stroke-width="1.5" stroke-linecap="round" stroke-linejoin="round"/>
      <path d="M12.613 9.904l-.42-.37a6.91 6.91 0 00-.51-2.14 5.72 5.72 0 01-1.21-2.38c-.16-.53-.27-.72-.74-.73a.72.72 0 00-.65.8c.006.24.026.481.06.72.115.631.3 1.248.55 1.84l-.19-.11-4.31-3.31a.75.75 0 00-1.11.07.73.73 0 00.27 1.06l2.2 1.69.64.51-3.57-2.71a.75.75 0 00-1.11.06.74.74 0 00.26 1.06l2.25 1.7 1.35 1-2.92-2.18a.74.74 0 00-1.11.06.73.73 0 00.26 1.06l2.25 1.69 1.13.85-2.25-1.69a.72.72 0 00-1.09 0 .74.74 0 00.24 1.08l4.1 3.11a2.72 2.72 0 002.08.51c.538.312 1.008.312 1.41 0 .602-.469.404-.511.85-1.13a11.57 11.57 0 001.29-2.12z" fill="#DCF0CB"/>
      <path d="M12.133 9.224a9 9 0 00-.36-2.32 4.24 4.24 0 01-1.33-1.86c-.16-.53-.27-.72-.74-.73a.72.72 0 00-.65.8c.006.24.026.481.06.72.137.655.33 1.298.58 1.92l-4.5-3.42a.75.75 0 00-1.11.07.72.72 0 00.27 1l2.25 1.7.59.56-3.57-2.71a.71.71 0 10-.85 1.12l2.25 1.7 1.35 1-2.92-2.19a.75.75 0 00-1.11.07c-.31.4-.06.81.26 1.06l2.25 1.69 1.13.85-2.25-1.7a.74.74 0 00-1.09 0 .75.75 0 00.24 1.09l4.1 3c.594.447 1.986.742 2.72.62" stroke="#165209" stroke-width=".5" stroke-linecap="round" stroke-linejoin="round"/>
      <path d="M14.767 11.388a2.2 2.2 0 01-.46-.75c0-.22-.06-.43-.1-.65a2.39 2.39 0 00-.36-1.08 5.91 5.91 0 01-1.21-2.38c-.16-.53-.27-.72-.74-.73a.72.72 0 00-.65.8c.007.24.027.48.06.72.18.92.37 1.68.39 1.73l-4.29-3.21a.74.74 0 00-1.11.07.72.72 0 00.26 1l2.25 1.7.68.56-3.6-2.71a.74.74 0 00-1.11.06.73.73 0 00.26 1.06l2.25 1.7 1.35 1-2.93-2.19a.74.74 0 00-1.1.08c-.31.4-.07.81.26 1.06l2.25 1.68 1.12.85-2.29-1.7a.73.73 0 00-1 .04.74.74 0 00.2 1.07l4 3c.334.25.72.421 1.13.5l.58.09c.305.045.6.143.87.29a.83.83 0 00.6.05 3.82 3.82 0 001.77-1.29 3.71 3.71 0 00.7-2 .85.85 0 00-.03-.42h0z" stroke="#165209" stroke-width="1.5" stroke-linecap="round" stroke-linejoin="round"/>
      <path d="M14.807 11.338l-.45-.34a6.64 6.64 0 00-.51-2.14 5.85 5.85 0 01-1.21-2.38c-.16-.53-.27-.72-.74-.73a.72.72 0 00-.65.8c.007.24.027.48.06.72.18.93.37 1.69.39 1.73l-4.29-3.21a.75.75 0 00-1.11.07c-.31.41-.06.81.26 1.06l2.25 1.69.68.56-3.6-2.76a.75.75 0 00-1.11.07c-.31.4-.06.81.26 1.06l2.25 1.69 1.35 1-2.93-2.19a.74.74 0 00-1.1.07.72.72 0 00.26 1.06l2.25 1.69 1.12.85-2.29-1.69a.71.71 0 00-1 .04.73.73 0 00.2 1.11l4 3a4.2 4.2 0 002 .59 6 6 0 00.8.41 3.22 3.22 0 002-1.26 4.81 4.81 0 00.86-2.57z" fill="#DDF6D1"/>
      <path d="M5.137 10.318c.57.43 4.43 3.43 4.89 3.59.476.17.995.17 1.47 0a1.48 1.48 0 00.47-.31" opacity=".5"/>
      <path d="M14.767 11.388a2.2 2.2 0 01-.46-.75c0-.22-.06-.43-.1-.65a2.39 2.39 0 00-.36-1.08 5.91 5.91 0 01-1.21-2.38c-.16-.53-.27-.72-.74-.73a.72.72 0 00-.65.8c.007.24.027.48.06.72.18.92.37 1.68.39 1.73l-4.29-3.21a.74.74 0 00-1.11.07.72.72 0 00.26 1l2.25 1.7.68.56-3.6-2.71a.74.74 0 00-1.11.06.73.73 0 00.26 1.06l2.25 1.7 1.35 1-2.93-2.19a.74.74 0 00-1.1.08c-.31.4-.07.81.26 1.06l2.25 1.68 1.12.85-2.29-1.7a.73.73 0 00-1 .04.74.74 0 00.2 1.07l4 3c.334.25.72.421 1.13.5l.58.09c.305.045.6.143.87.29a.83.83 0 00.6.05 3.82 3.82 0 001.77-1.29 3.71 3.71 0 00.7-2 .85.85 0 00-.03-.42h0z" stroke="#165209" stroke-width=".5" stroke-linecap="round" stroke-linejoin="round"/>
      <path d="M8.829 2.818l-.73.92M5.494 1.625l.065 1.193M7.538 1.633l-.649 1.56" stroke="#165209" stroke-linecap="round" stroke-linejoin="round"/>
    </g>
  </g>
</svg> -->
<svg width="16px" height="16px" viewBox="0 0 512 512" xmlns="http://www.w3.org/2000/svg" xmlns:xlink="http://www.w3.org/1999/xlink" aria-hidden="true" role="img" class="iconify iconify--fxemoji" preserveAspectRatio="xMidYMid meet" fill="#000000"><g id="SVGRepo_bgCarrier" stroke-width="0"></g><g id="SVGRepo_tracerCarrier" stroke-linecap="round" stroke-linejoin="round"></g><g id="SVGRepo_iconCarrier"><path fill="#d9c5ba" d="M442.3 391.6l-2.3-2.3l-16.6-16.6c11.1-13.9 15.3-31.4 12.8-48.1c0-.3-.1-.6-.2-.9c-.1-.4-.1-.7-.2-1.1c-.1-1.3-.6-3.3-1.4-5.9c-.4-1.3-.8-2.5-1.2-3.8c-8.9-26.1-36.5-93.1-31.7-159.1c.1-14.8-9.8-28.2-23.8-27.4c-14 .8-39.5 8.1-40.9 74.1c-.2 12.2-1.9 18.1-1.4 28.1L175.7 68.9c-10.4-10.4-26.9-10.6-37.3-.2c-10.4 10.4-10.4 27.3-.1 37.6l94.5 94.5c.1.1.1.2.2.2c8.8 8.8-1.8 21-11.1 15.7l-113.1-113c-10.4-10.4-26.9-10.6-37.3-.2c-10.4 10.5-10.5 27.3-.1 37.7l113.4 113.4c5.5 8.3-5 18.3-13.2 11.6l-99-99c-10.4-10.4-26.9-10.6-37.3-.2c-10.4 10.4-10.5 27.2-.1 37.6l97.5 97.5c.1.2.3.5.6.8c8.5 8.5-1.6 20.2-10.6 15.3l-69.8-69.8c-10.4-10.4-26.9-10.6-37.3-.2c-10.4 10.4-10.5 27.2-.1 37.6L179.6 450c33.4 33.4 81.7 42.5 123.3 27.5l5.1 5.1l21.6 21.6c10.4 10.4 27.2 10.4 37.6 0l75.1-75.1c10.4-10.3 10.4-27.2 0-37.5z"></path><path fill="#1C274C" d="M377.9 33c-.3-.9-.9-1.6-1.8-1.9l-29.9-10.9c-.9-.3-1.8-.2-2.6.3s-1.2 1.3-1.3 2.2l-4.6 59.2c-.1 1.3.7 2.5 1.9 2.9c.3.1.7.2 1 .2c.9 0 1.8-.4 2.4-1.2l34.5-48.3c.6-.7.7-1.6.4-2.5z"></path><path fill="#1C274C" d="M439 90.6l-13.4-28.8c-.4-.8-1.1-1.4-2-1.6c-.9-.2-1.8 0-2.5.6L376 99.4c-1 .8-1.3 2.2-.7 3.4c.5 1 1.5 1.7 2.6 1.7h.5l58.5-9.7c.9-.1 1.7-.7 2.1-1.5c.4-.9.4-1.9 0-2.7z"></path><path fill="#1C274C" d="M298 75.5L288.3 17c-.1-.9-.7-1.7-1.5-2.1c-.8-.4-1.7-.4-2.6-.1l-28.8 13.4c-.8.4-1.4 1.1-1.6 2c-.2.9 0 1.8.6 2.5L293 77.9c.6.7 1.4 1 2.2 1c.4 0 .8-.1 1.2-.3c1.2-.5 1.8-1.8 1.6-3.1z"></path><path fill="#e4d4c9" d="M500.4 391.6l-18.9-18.9c11.1-13.9 15.3-31.4 12.8-48.1c0-.3-.1-.6-.2-.9c-.1-.4-.1-.7-.2-1.1c-.1-1.3-.6-3.3-1.4-5.9c-.4-1.3-.8-2.5-1.2-3.8c-8.9-26.1-36.5-93.1-31.7-159.1c.1-14.8-9.8-28.2-23.8-27.4s-39.5 8.1-40.9 74.1c-.2 12.2-1.9 18.1-1.4 28.1L233.8 68.9c-10.4-10.4-26.9-10.6-37.3-.2c-10.4 10.4-10.4 27.3-.1 37.6l94.5 94.5c.1.1.1.2.2.2c8.8 8.8-1.8 21-11.1 15.7l-113.1-113c-10.4-10.4-26.9-10.6-37.3-.2c-10.4 10.4-10.5 27.2-.1 37.6l113.4 113.4c5.5 8.3-5 18.3-13.2 11.6l-99-99c-10.4-10.4-26.9-10.6-37.3-.2c-10.4 10.4-10.5 27.2-.1 37.6l97.5 97.5c.1.2.3.5.6.8c8.5 8.5-1.6 20.2-10.6 15.3L111 248.3c-10.4-10.4-26.9-10.6-37.3-.2c-10.4 10.4-10.5 27.2-.1 37.6L237.7 450c33.4 33.4 81.7 42.5 123.3 27.5l26.7 26.7c10.4 10.4 27.2 10.4 37.6 0l75.1-75.1c10.4-10.3 10.4-27.2 0-37.5z"></path><path fill="#c2b3a8" d="M481.3 372.4c-1.5 2.1-3 4-4.5 5.5L419.6 435v-.3L404.4 450c-12.7 12.7-27.5 21.8-43.3 27.5l23.8 23.8c5.2-1.6 9.6-3.8 12.4-6.6l93.9-93.9c2.7-2.7 5-6.8 6.9-11.6l-16.8-16.8z"></path></g></svg>